<mxfile host="Electron" modified="2024-10-22T19:21:36.995Z" agent="Mozilla/5.0 (Windows NT 10.0; Win64; x64) AppleWebKit/537.36 (KHTML, like Gecko) draw.io/22.1.2 Chrome/114.0.5735.289 Electron/25.9.4 Safari/537.36" etag="zOm4xLjRK8MFBQlB2Uws" version="22.1.2" type="device">
  <diagram name="PÃ¡gina-1" id="FUY2fyWscJaP3zaW1_rk">
    <mxGraphModel dx="2427" dy="2085" grid="1" gridSize="10" guides="1" tooltips="1" connect="1" arrows="1" fold="1" page="1" pageScale="1" pageWidth="827" pageHeight="1169" math="0" shadow="0">
      <root>
        <mxCell id="0" />
        <mxCell id="1" parent="0" />
        <mxCell id="iNn-gAztASkHNPkMmbOP-10" value="" style="rounded=0;whiteSpace=wrap;html=1;" vertex="1" parent="1">
          <mxGeometry x="-200" y="-80" width="970" height="640" as="geometry" />
        </mxCell>
        <mxCell id="iNn-gAztASkHNPkMmbOP-41" style="edgeStyle=orthogonalEdgeStyle;rounded=0;orthogonalLoop=1;jettySize=auto;html=1;entryX=0.5;entryY=0;entryDx=0;entryDy=0;exitX=0.5;exitY=0;exitDx=0;exitDy=0;" edge="1" parent="1" source="iNn-gAztASkHNPkMmbOP-11" target="iNn-gAztASkHNPkMmbOP-27">
          <mxGeometry relative="1" as="geometry">
            <Array as="points">
              <mxPoint x="285" y="-260" />
              <mxPoint x="1365" y="-260" />
            </Array>
          </mxGeometry>
        </mxCell>
        <mxCell id="iNn-gAztASkHNPkMmbOP-42" value="&lt;font style=&quot;font-size: 48px;&quot;&gt;On succsess login&lt;/font&gt;" style="edgeLabel;html=1;align=center;verticalAlign=middle;resizable=0;points=[];" vertex="1" connectable="0" parent="iNn-gAztASkHNPkMmbOP-41">
          <mxGeometry x="-0.1869" y="-4" relative="1" as="geometry">
            <mxPoint x="136" as="offset" />
          </mxGeometry>
        </mxCell>
        <mxCell id="iNn-gAztASkHNPkMmbOP-11" value="" style="rounded=0;whiteSpace=wrap;html=1;" vertex="1" parent="1">
          <mxGeometry x="-200" y="-80" width="970" height="40" as="geometry" />
        </mxCell>
        <mxCell id="iNn-gAztASkHNPkMmbOP-12" value="X" style="rounded=1;whiteSpace=wrap;html=1;" vertex="1" parent="1">
          <mxGeometry x="730" y="-80" width="40" height="40" as="geometry" />
        </mxCell>
        <mxCell id="iNn-gAztASkHNPkMmbOP-13" value="=" style="rounded=1;whiteSpace=wrap;html=1;" vertex="1" parent="1">
          <mxGeometry x="690" y="-80" width="40" height="40" as="geometry" />
        </mxCell>
        <mxCell id="iNn-gAztASkHNPkMmbOP-14" value="-" style="rounded=1;whiteSpace=wrap;html=1;" vertex="1" parent="1">
          <mxGeometry x="650" y="-80" width="40" height="40" as="geometry" />
        </mxCell>
        <mxCell id="iNn-gAztASkHNPkMmbOP-15" value="workout2succsess.com/login" style="rounded=1;whiteSpace=wrap;html=1;" vertex="1" parent="1">
          <mxGeometry x="-200" y="-80" width="200" height="40" as="geometry" />
        </mxCell>
        <mxCell id="iNn-gAztASkHNPkMmbOP-16" value="" style="rounded=1;whiteSpace=wrap;html=1;" vertex="1" parent="1">
          <mxGeometry x="490" y="-40" width="280" height="600" as="geometry" />
        </mxCell>
        <mxCell id="iNn-gAztASkHNPkMmbOP-17" value="Username" style="rounded=1;whiteSpace=wrap;html=1;" vertex="1" parent="1">
          <mxGeometry x="510" y="220" width="240" height="40" as="geometry" />
        </mxCell>
        <mxCell id="iNn-gAztASkHNPkMmbOP-18" value="Password" style="rounded=1;whiteSpace=wrap;html=1;" vertex="1" parent="1">
          <mxGeometry x="510" y="270" width="240" height="40" as="geometry" />
        </mxCell>
        <mxCell id="iNn-gAztASkHNPkMmbOP-19" value="Login" style="rounded=1;whiteSpace=wrap;html=1;" vertex="1" parent="1">
          <mxGeometry x="510" y="320" width="110" height="40" as="geometry" />
        </mxCell>
        <mxCell id="iNn-gAztASkHNPkMmbOP-20" value="Register" style="rounded=1;whiteSpace=wrap;html=1;" vertex="1" parent="1">
          <mxGeometry x="640" y="320" width="110" height="40" as="geometry" />
        </mxCell>
        <mxCell id="iNn-gAztASkHNPkMmbOP-21" value="Logo" style="html=1;shadow=0;dashed=0;shape=mxgraph.basic.arc;startAngle=0.25;endAngle=1;strokeWidth=4;strokeColor=#DB2843;" vertex="1" parent="1">
          <mxGeometry x="560" y="10" width="150" height="150" as="geometry" />
        </mxCell>
        <mxCell id="iNn-gAztASkHNPkMmbOP-23" value="" style="html=1;shadow=0;dashed=0;shape=mxgraph.basic.arc;startAngle=0.25;endAngle=1;strokeWidth=4;strokeColor=#F8F9FA;rotation=-180;" vertex="1" parent="1">
          <mxGeometry x="585" y="40" width="100" height="90" as="geometry" />
        </mxCell>
        <mxCell id="iNn-gAztASkHNPkMmbOP-24" value="Image/video presentation" style="rounded=1;whiteSpace=wrap;html=1;" vertex="1" parent="1">
          <mxGeometry x="-190" y="-30" width="670" height="350" as="geometry" />
        </mxCell>
        <mxCell id="iNn-gAztASkHNPkMmbOP-25" value="Description" style="rounded=1;whiteSpace=wrap;html=1;" vertex="1" parent="1">
          <mxGeometry x="-190" y="330" width="670" height="140" as="geometry" />
        </mxCell>
        <mxCell id="iNn-gAztASkHNPkMmbOP-26" value="" style="rounded=0;whiteSpace=wrap;html=1;" vertex="1" parent="1">
          <mxGeometry x="880" y="-80" width="970" height="640" as="geometry" />
        </mxCell>
        <mxCell id="iNn-gAztASkHNPkMmbOP-27" value="" style="rounded=0;whiteSpace=wrap;html=1;" vertex="1" parent="1">
          <mxGeometry x="880" y="-80" width="970" height="40" as="geometry" />
        </mxCell>
        <mxCell id="iNn-gAztASkHNPkMmbOP-28" value="X" style="rounded=1;whiteSpace=wrap;html=1;" vertex="1" parent="1">
          <mxGeometry x="1810" y="-80" width="40" height="40" as="geometry" />
        </mxCell>
        <mxCell id="iNn-gAztASkHNPkMmbOP-29" value="=" style="rounded=1;whiteSpace=wrap;html=1;" vertex="1" parent="1">
          <mxGeometry x="1770" y="-80" width="40" height="40" as="geometry" />
        </mxCell>
        <mxCell id="iNn-gAztASkHNPkMmbOP-30" value="-" style="rounded=1;whiteSpace=wrap;html=1;" vertex="1" parent="1">
          <mxGeometry x="1730" y="-80" width="40" height="40" as="geometry" />
        </mxCell>
        <mxCell id="iNn-gAztASkHNPkMmbOP-31" value="workout2succsess.com/home" style="rounded=1;whiteSpace=wrap;html=1;" vertex="1" parent="1">
          <mxGeometry x="880" y="-80" width="200" height="40" as="geometry" />
        </mxCell>
        <mxCell id="iNn-gAztASkHNPkMmbOP-32" value="" style="rounded=1;whiteSpace=wrap;html=1;" vertex="1" parent="1">
          <mxGeometry x="890" y="-40" width="280" height="600" as="geometry" />
        </mxCell>
        <mxCell id="iNn-gAztASkHNPkMmbOP-33" value="Trainees" style="rounded=1;whiteSpace=wrap;html=1;" vertex="1" parent="1">
          <mxGeometry x="910" y="160" width="240" height="40" as="geometry" />
        </mxCell>
        <mxCell id="iNn-gAztASkHNPkMmbOP-34" value="Program" style="rounded=1;whiteSpace=wrap;html=1;" vertex="1" parent="1">
          <mxGeometry x="910" y="210" width="240" height="40" as="geometry" />
        </mxCell>
        <mxCell id="iNn-gAztASkHNPkMmbOP-35" value="something" style="rounded=1;whiteSpace=wrap;html=1;" vertex="1" parent="1">
          <mxGeometry x="910" y="260" width="240" height="40" as="geometry" />
        </mxCell>
        <mxCell id="iNn-gAztASkHNPkMmbOP-36" value="Logout" style="rounded=1;whiteSpace=wrap;html=1;" vertex="1" parent="1">
          <mxGeometry x="910" y="490" width="240" height="40" as="geometry" />
        </mxCell>
        <mxCell id="iNn-gAztASkHNPkMmbOP-37" value="Logo" style="html=1;shadow=0;dashed=0;shape=mxgraph.basic.arc;startAngle=0.25;endAngle=1;strokeWidth=4;strokeColor=#DB2843;" vertex="1" parent="1">
          <mxGeometry x="955" y="-20" width="150" height="150" as="geometry" />
        </mxCell>
        <mxCell id="iNn-gAztASkHNPkMmbOP-38" value="" style="html=1;shadow=0;dashed=0;shape=mxgraph.basic.arc;startAngle=0.25;endAngle=1;strokeWidth=4;strokeColor=#F8F9FA;rotation=-180;" vertex="1" parent="1">
          <mxGeometry x="980" y="10" width="100" height="90" as="geometry" />
        </mxCell>
        <mxCell id="iNn-gAztASkHNPkMmbOP-43" style="edgeStyle=orthogonalEdgeStyle;rounded=0;orthogonalLoop=1;jettySize=auto;html=1;entryX=0.25;entryY=1;entryDx=0;entryDy=0;exitX=0.5;exitY=1;exitDx=0;exitDy=0;" edge="1" parent="1" source="iNn-gAztASkHNPkMmbOP-16" target="iNn-gAztASkHNPkMmbOP-10">
          <mxGeometry relative="1" as="geometry">
            <Array as="points">
              <mxPoint x="630" y="680" />
              <mxPoint x="43" y="680" />
            </Array>
          </mxGeometry>
        </mxCell>
        <mxCell id="iNn-gAztASkHNPkMmbOP-44" value="&lt;font style=&quot;font-size: 48px;&quot;&gt;On failed Login&lt;/font&gt;" style="edgeLabel;html=1;align=center;verticalAlign=middle;resizable=0;points=[];" vertex="1" connectable="0" parent="iNn-gAztASkHNPkMmbOP-43">
          <mxGeometry x="0.1316" relative="1" as="geometry">
            <mxPoint x="59" as="offset" />
          </mxGeometry>
        </mxCell>
      </root>
    </mxGraphModel>
  </diagram>
</mxfile>
